<?xml version="1.0" standalone="no"?>
<!DOCTYPE svg PUBLIC "-//W3C//DTD SVG 20010904//EN"
 "http://www.w3.org/TR/2001/REC-SVG-20010904/DTD/svg10.dtd">
<svg version="1.0" xmlns="http://www.w3.org/2000/svg"
 width="248.000000pt" height="160.000000pt" viewBox="0 0 248.000000 160.000000"
 preserveAspectRatio="xMidYMid meet">
<metadata>
Created by potrace 1.15, written by Peter Selinger 2001-2017
</metadata>
<g transform="translate(0.000000,160.000000) scale(0.100000,-0.100000)"
fill="#000000" stroke="none">
<path d="M1065 1580 c-38 -10 -91 -27 -118 -39 -150 -65 -334 -255 -342 -354
-1 -17 -12 -63 -24 -102 -31 -99 -32 -269 -1 -375 12 -41 23 -90 25 -108 8
-82 160 -255 286 -325 332 -185 739 -80 948 243 23 35 41 69 41 77 0 7 9 39
19 71 47 139 47 298 0 456 -28 94 -55 146 -109 214 -93 115 -233 206 -378 243
-99 25 -251 25 -347 -1z m377 -54 c40 -13 82 -27 93 -31 17 -6 18 -5 5 5 -13
10 -13 11 0 7 8 -2 15 -9 15 -15 0 -12 58 -52 73 -52 4 0 -4 10 -18 21 l-25
21 25 -14 c14 -9 24 -19 23 -24 -2 -12 17 -34 29 -34 6 0 4 8 -3 18 -13 15
-12 16 4 3 9 -8 15 -16 12 -19 -7 -8 66 -82 75 -77 4 3 16 -5 26 -18 16 -18
16 -19 2 -8 -10 7 -18 9 -18 3 0 -13 25 -33 32 -26 3 3 9 0 14 -7 5 -8 3 -10
-6 -4 -8 5 -11 3 -8 -6 3 -8 10 -14 16 -14 5 0 14 -4 19 -9 5 -5 3 -6 -4 -2
-16 9 -16 1 -2 -25 5 -11 15 -16 21 -13 7 4 8 3 4 -5 -4 -6 4 -39 17 -74 46
-114 60 -316 24 -339 -7 -4 -27 -8 -45 -8 l-32 0 4 73 5 72 -10 -73 c-5 -41
-21 -104 -35 -140 -24 -63 -53 -166 -67 -240 -5 -23 -3 -31 5 -26 7 4 8 3 4
-5 -6 -9 -16 -7 -39 8 l-30 19 -51 -38 c-201 -150 -461 -155 -669 -14 -115 79
-198 193 -239 329 -16 53 -18 55 -13 18 l5 -43 -39 0 -39 0 -11 63 c-15 87
-14 170 4 246 9 35 13 73 10 85 -4 14 -3 17 3 8 6 -9 14 0 28 35 10 26 21 52
23 57 2 5 -2 5 -9 1 -9 -5 -11 -4 -6 4 4 6 11 9 16 6 5 -3 14 3 19 14 14 26
14 34 -1 25 -7 -4 -11 -5 -8 -1 3 3 8 5 11 4 9 -3 39 24 39 35 0 6 -8 4 -17
-3 -16 -13 -17 -12 -4 3 7 10 16 16 20 13 10 -5 113 99 106 107 -3 3 3 11 12
19 16 13 17 12 4 -3 -20 -27 -8 -22 59 21 63 41 155 76 238 91 79 15 223 3
304 -24z"/>
<path d="M1178 1400 c-122 -21 -233 -82 -308 -167 -249 -283 -109 -733 257
-828 143 -37 326 2 443 94 22 18 23 20 7 26 -9 4 -17 11 -17 15 0 4 30 27 67
51 52 34 70 53 86 89 89 202 49 428 -104 581 -106 106 -286 164 -431 139z
m-208 -506 l0 -175 -37 3 -38 3 -3 118 c-1 64 -7 117 -12 117 -5 0 -20 -4 -33
-9 -27 -10 -37 1 -37 40 0 21 99 78 138 79 22 0 22 0 22 -176z m419 161 c16
-8 31 -22 35 -30 13 -34 6 -82 -14 -100 -20 -18 -20 -18 5 -41 36 -33 35 -101
-1 -135 -22 -21 -37 -24 -110 -28 l-84 -3 -1 158 c0 88 -3 153 -6 147 -2 -7
-19 -13 -37 -13 l-33 0 -6 -82 c-4 -46 -7 -111 -7 -145 l0 -63 -30 0 c-27 0
-30 3 -31 33 -1 17 -4 82 -8 142 l-6 110 -32 3 c-29 3 -33 7 -33 33 l0 29 185
0 c144 0 192 -3 214 -15z m121 -54 c0 -81 16 -107 59 -96 37 9 42 22 39 95
l-2 65 35 0 34 0 3 -100 c2 -55 0 -133 -3 -172 -7 -72 -7 -73 -35 -73 -29 0
-29 1 -32 67 l-3 67 -56 -3 c-43 -2 -61 2 -80 17 -22 18 -24 29 -27 111 l-4
91 36 0 36 0 0 -69z"/>
<path d="M210 895 l0 -295 35 0 35 0 0 295 0 295 -35 0 -35 0 0 -295z"/>
<path d="M310 895 l0 -295 40 0 40 0 0 295 0 295 -40 0 -40 0 0 -295z"/>
<path d="M410 895 l0 -295 40 0 40 0 0 295 0 295 -40 0 -40 0 0 -295z"/>
<path d="M520 895 l0 -295 40 0 c22 0 40 1 40 3 0 1 -9 27 -19 58 -57 161 -51
340 16 515 4 11 -5 14 -36 14 l-41 0 0 -295z"/>
<path d="M2200 895 l0 -295 40 0 40 0 0 295 0 295 -40 0 -40 0 0 -295z"/>
<path d="M2300 895 l0 -295 40 0 40 0 0 295 0 295 -40 0 -40 0 0 -295z"/>
<path d="M2410 895 l0 -295 35 0 35 0 0 295 0 295 -35 0 -35 0 0 -295z"/>
</g>
</svg>
